<?xml version="1.0" standalone="no"?>
<!DOCTYPE svg PUBLIC "-//W3C//DTD SVG 20010904//EN"
 "http://www.w3.org/TR/2001/REC-SVG-20010904/DTD/svg10.dtd">
<svg version="1.0" xmlns="http://www.w3.org/2000/svg"
 width="700.000000pt" height="700.000000pt" viewBox="0 0 700.000000 700.000000"
 preserveAspectRatio="xMidYMid meet">
<metadata>
Created by potrace 1.14, written by Peter Selinger 2001-2017
</metadata>
<g transform="translate(0.000000,700.000000) scale(0.100000,-0.100000)"
fill="#000000" stroke="none">
<path d="M2924 6990 c-17 -4 -41 -17 -52 -28 -12 -12 -26 -22 -32 -22 -5 0
-10 -6 -10 -13 0 -7 -9 -20 -20 -30 -11 -9 -20 -25 -20 -35 0 -10 -6 -24 -12
-30 -9 -9 -13 -87 -13 -302 0 -160 -2 -290 -5 -291 -3 -1 -22 -3 -43 -5 -21
-1 -44 -7 -50 -12 -7 -5 -32 -14 -57 -21 -25 -7 -49 -17 -55 -21 -5 -4 -28
-11 -50 -14 -22 -4 -41 -11 -43 -16 -2 -6 -12 -10 -21 -10 -10 0 -30 -9 -45
-21 -14 -11 -42 -23 -62 -25 -41 -5 -84 -25 -103 -48 -8 -9 -22 -16 -32 -16
-10 0 -33 -13 -52 -30 l-34 -29 -129 127 c-155 152 -244 232 -259 232 -7 0
-20 9 -30 20 -17 18 -31 20 -174 20 l-156 0 -368 -367 -367 -368 0 -152 c0
-140 2 -155 20 -173 11 -11 20 -27 20 -35 0 -16 63 -86 242 -269 l117 -120
-30 -33 c-16 -19 -29 -41 -29 -49 0 -9 -11 -29 -25 -45 -23 -28 -45 -86 -45
-120 0 -9 -9 -26 -20 -39 -11 -13 -20 -31 -20 -41 0 -9 -5 -19 -10 -21 -6 -2
-12 -20 -15 -41 -3 -22 -12 -48 -20 -60 -8 -12 -15 -31 -15 -42 0 -11 -7 -33
-15 -49 -9 -17 -17 -45 -19 -63 -1 -18 -5 -35 -8 -39 -3 -3 -134 -7 -290 -8
-221 -3 -290 -6 -313 -18 -47 -22 -95 -52 -95 -60 0 -3 -12 -21 -27 -39 l-28
-33 0 -586 0 -586 27 -33 c16 -18 28 -37 28 -42 0 -5 7 -9 15 -9 8 0 19 -9 25
-20 6 -11 21 -20 33 -20 13 0 28 -5 35 -12 9 -9 89 -13 297 -14 156 -2 289 -5
295 -9 6 -3 8 -16 6 -29 -2 -12 4 -40 15 -62 10 -21 18 -48 19 -59 0 -11 7
-30 15 -42 8 -12 17 -34 19 -50 5 -36 33 -102 52 -120 8 -8 14 -22 14 -32 0
-32 31 -109 51 -127 10 -9 19 -25 19 -35 0 -10 13 -34 30 -52 l29 -34 -127
-129 c-151 -153 -232 -244 -232 -259 0 -7 -9 -20 -20 -30 -18 -17 -20 -31 -20
-174 l0 -156 368 -368 368 -368 156 1 c140 2 158 4 174 21 9 10 22 19 29 19
15 0 103 79 259 232 l130 127 33 -30 c19 -16 41 -29 49 -29 9 0 29 -11 45 -25
28 -23 86 -45 120 -45 9 0 26 -9 39 -20 13 -11 31 -20 41 -20 9 0 19 -5 21
-10 2 -6 20 -12 41 -15 22 -3 48 -12 60 -20 12 -8 31 -15 42 -15 11 0 34 -7
50 -16 17 -9 46 -17 65 -19 19 -1 37 -3 40 -4 3 0 5 -128 5 -284 1 -249 3
-288 19 -329 10 -27 23 -48 28 -48 4 0 13 -11 18 -25 5 -14 15 -25 22 -25 6 0
22 -10 36 -22 l24 -23 587 0 587 0 33 28 c18 15 37 27 42 27 5 0 9 7 9 15 0 7
6 18 14 22 8 4 22 26 31 48 15 34 18 81 21 319 2 154 6 286 8 293 3 8 15 12
30 9 13 -2 35 2 49 9 14 7 41 16 59 20 18 4 43 13 55 21 12 8 39 16 60 19 21
3 39 9 41 15 2 5 12 10 21 10 10 0 28 9 40 19 12 11 41 23 64 26 48 8 88 27
106 49 8 9 22 16 32 16 10 0 33 13 52 29 l33 30 147 -144 c160 -157 221 -209
254 -219 11 -4 24 -13 27 -21 4 -12 34 -15 163 -15 l158 0 368 367 368 368 -2
157 c-1 141 -3 158 -20 174 -10 9 -19 22 -19 27 0 17 -67 92 -216 245 l-143
146 30 33 c16 19 29 41 29 49 0 9 11 29 25 45 25 30 45 86 45 127 0 12 4 22
10 22 13 0 49 77 56 118 3 17 12 44 20 60 7 15 14 34 14 42 0 8 7 28 15 44 9
16 17 47 18 68 2 30 6 38 22 38 11 1 139 2 285 3 230 3 271 5 313 21 26 10 47
23 47 28 0 4 11 13 25 18 14 5 25 15 25 22 0 6 10 22 23 36 l22 24 0 587 0
587 -27 33 c-16 18 -28 37 -28 42 0 5 -7 9 -15 9 -7 0 -18 6 -22 14 -4 8 -26
22 -48 31 -34 15 -80 18 -315 21 -151 2 -282 3 -290 4 -10 0 -16 12 -17 40 -2
23 -8 51 -15 63 -7 12 -14 33 -16 47 -2 14 -10 36 -18 48 -9 13 -17 40 -19 60
-2 20 -8 38 -14 40 -6 2 -11 12 -11 21 0 10 -9 28 -19 40 -11 12 -23 41 -26
64 -8 48 -27 88 -49 106 -9 8 -16 22 -16 32 0 10 -13 33 -29 52 l-29 33 143
147 c165 168 215 227 215 251 0 9 6 16 14 16 21 0 26 33 26 190 l0 145 -368
368 -367 367 -156 0 c-143 0 -157 -2 -174 -20 -10 -11 -23 -20 -28 -20 -17 0
-90 -65 -244 -215 l-147 -144 -33 30 c-19 16 -42 29 -52 29 -10 0 -26 9 -35
19 -18 20 -95 51 -126 51 -9 0 -27 9 -40 20 -13 11 -31 20 -41 20 -9 0 -19 4
-21 10 -1 5 -21 12 -43 16 -22 3 -44 9 -50 14 -5 4 -28 13 -50 19 -22 7 -50
17 -62 23 -13 6 -39 12 -58 12 -19 1 -35 3 -35 6 -1 3 -2 131 -3 285 -3 292
-10 344 -49 373 -10 7 -18 20 -18 28 0 8 -8 17 -17 21 -10 3 -28 15 -41 27
-23 21 -29 21 -590 22 -312 1 -581 -2 -598 -6z m681 -2150 c6 -5 44 -11 84
-14 46 -3 79 -10 90 -20 9 -9 40 -18 68 -21 28 -3 63 -12 79 -20 16 -8 34 -15
41 -15 7 0 16 -6 20 -14 4 -7 28 -17 53 -20 25 -3 47 -11 48 -16 2 -6 14 -10
26 -10 27 0 66 -26 66 -45 0 -7 15 -18 33 -24 17 -7 52 -29 75 -50 24 -21 56
-41 72 -44 18 -4 30 -14 33 -29 4 -14 19 -28 37 -35 16 -6 30 -18 30 -26 0 -8
16 -27 35 -41 19 -15 35 -35 35 -45 0 -10 18 -37 40 -62 23 -24 43 -56 47 -71
3 -16 10 -28 15 -28 17 0 58 -53 58 -76 0 -12 5 -24 11 -26 5 -2 13 -23 16
-47 3 -24 14 -52 25 -63 10 -10 18 -29 18 -42 0 -13 4 -26 10 -28 5 -1 12 -28
15 -58 3 -29 12 -62 21 -71 9 -10 17 -43 20 -84 2 -37 9 -76 15 -87 14 -27 15
-194 1 -211 -6 -7 -14 -46 -16 -87 -3 -44 -11 -79 -20 -89 -9 -10 -18 -41 -21
-71 -3 -30 -10 -59 -15 -64 -6 -6 -10 -18 -10 -28 0 -10 -9 -27 -19 -37 -11
-11 -22 -34 -25 -53 -11 -70 -39 -131 -68 -147 -15 -9 -28 -24 -28 -33 0 -9
-20 -40 -44 -68 -25 -29 -48 -65 -51 -79 -3 -15 -16 -31 -28 -36 -12 -6 -27
-21 -33 -34 -7 -13 -22 -28 -35 -35 -13 -6 -28 -22 -34 -34 -6 -13 -22 -26
-37 -29 -15 -3 -47 -23 -70 -45 -24 -21 -54 -41 -68 -44 -14 -3 -33 -18 -42
-34 -10 -18 -28 -31 -49 -35 -19 -4 -37 -12 -40 -17 -6 -10 -30 -16 -66 -17
-12 -1 -28 -8 -36 -16 -8 -7 -28 -17 -43 -21 -16 -4 -32 -11 -35 -16 -3 -5
-30 -11 -59 -13 -29 -2 -60 -11 -70 -20 -12 -11 -43 -18 -90 -21 -40 -2 -78
-9 -85 -14 -16 -14 -193 -14 -208 -1 -7 5 -45 12 -86 15 -46 3 -79 10 -90 20
-10 9 -42 18 -71 21 -30 3 -56 9 -59 14 -4 4 -19 11 -36 15 -16 4 -37 14 -45
21 -8 7 -33 16 -55 19 -22 4 -41 11 -43 16 -2 6 -12 10 -23 10 -26 0 -69 29
-69 45 0 8 -15 18 -32 24 -18 6 -50 27 -71 47 -21 20 -52 40 -70 45 -18 5 -36
18 -42 31 -6 13 -21 28 -34 34 -13 7 -28 22 -35 35 -6 13 -23 29 -36 36 -14 7
-26 17 -26 23 -1 5 -2 16 -3 23 0 8 -19 33 -41 58 -23 24 -43 57 -47 72 -3 17
-15 32 -29 37 -26 10 -44 39 -44 69 0 10 -5 21 -11 23 -6 2 -13 23 -16 47 -3
24 -14 52 -24 62 -10 10 -19 30 -19 43 0 13 -4 26 -10 28 -5 2 -12 28 -15 58
-3 29 -13 62 -21 71 -10 11 -17 42 -19 83 -2 36 -9 74 -15 85 -13 26 -15 193
-1 218 5 10 12 49 15 87 3 41 11 75 20 85 9 10 17 36 20 58 4 48 34 134 51
148 6 6 14 30 18 55 3 24 11 46 16 48 6 2 11 12 11 23 0 25 29 69 45 69 7 0
18 14 24 30 5 17 28 52 50 78 22 26 42 58 44 71 2 12 14 28 28 34 13 7 29 23
35 36 7 13 22 28 35 35 13 6 29 22 34 34 6 13 21 26 35 29 14 3 49 25 79 49
29 24 62 44 72 44 11 0 19 5 19 10 0 20 49 60 74 60 13 0 26 4 28 10 2 5 24
14 50 18 26 5 54 17 63 26 9 9 27 16 40 16 13 0 25 5 27 11 2 6 27 12 57 14
30 2 60 10 70 20 11 9 43 17 82 20 35 3 75 10 89 15 48 18 193 18 215 0z"/>
</g>
</svg>
