<?xml version="1.0" standalone="no"?>
<!DOCTYPE svg PUBLIC "-//W3C//DTD SVG 20010904//EN"
 "http://www.w3.org/TR/2001/REC-SVG-20010904/DTD/svg10.dtd">
<svg version="1.0" xmlns="http://www.w3.org/2000/svg"
 width="512.000000pt" height="512.000000pt" viewBox="0 0 512.000000 512.000000"
 preserveAspectRatio="xMidYMid meet">
<metadata>
Created by potrace 1.16, written by Peter Selinger 2001-2019
</metadata>
<g transform="translate(0.000000,512.000000) scale(0.100000,-0.100000)"
fill="#40cc4d" stroke="none">
<path d="M2110 5100 c-8 -11 -20 -20 -27 -20 -7 0 -13 -6 -13 -14 0 -8 -7 -16
-15 -20 -8 -3 -15 -15 -15 -26 0 -11 -4 -20 -10 -20 -6 0 -10 -80 -10 -220 l0
-220 -35 0 c-19 0 -35 -4 -35 -9 0 -5 -18 -11 -40 -15 -22 -3 -40 -11 -40 -16
0 -6 -16 -10 -35 -10 -19 0 -35 -4 -35 -10 0 -5 -9 -10 -20 -10 -11 0 -23 -7
-26 -15 -4 -8 -18 -15 -34 -15 -31 0 -90 -27 -90 -41 0 -5 -10 -9 -22 -9 -13
0 -32 -10 -42 -23 l-19 -22 -133 132 c-84 84 -140 133 -153 133 -12 0 -21 7
-21 15 0 13 -20 15 -121 15 l-120 0 -270 -269 -269 -270 0 -120 c0 -101 2
-121 15 -121 8 0 15 -9 15 -21 0 -13 49 -69 133 -153 l132 -133 -22 -19 c-13
-10 -23 -29 -23 -41 0 -13 -4 -23 -9 -23 -14 0 -41 -59 -41 -90 0 -16 -7 -30
-15 -34 -8 -3 -15 -15 -15 -26 0 -11 -4 -20 -10 -20 -5 0 -10 -16 -10 -35 0
-19 -4 -35 -10 -35 -5 0 -13 -18 -16 -40 -4 -22 -10 -40 -15 -40 -5 0 -9 -16
-9 -35 l0 -35 -220 0 c-140 0 -220 -4 -220 -10 0 -5 -9 -10 -20 -10 -11 0 -23
-7 -26 -15 -4 -8 -12 -15 -20 -15 -8 0 -14 -6 -14 -13 0 -7 -9 -19 -20 -27
-19 -14 -20 -26 -20 -450 0 -424 1 -436 20 -450 11 -8 20 -20 20 -27 0 -7 6
-13 14 -13 8 0 16 -7 20 -15 3 -8 15 -15 26 -15 11 0 20 -4 20 -10 0 -6 80
-10 220 -10 l220 0 0 -35 c0 -19 4 -35 9 -35 5 0 11 -18 15 -40 3 -22 11 -40
16 -40 6 0 10 -16 10 -35 0 -19 5 -35 10 -35 6 0 10 -9 10 -20 0 -11 7 -23 15
-26 8 -4 15 -18 15 -34 0 -31 27 -90 41 -90 5 0 9 -10 9 -22 0 -13 10 -32 23
-42 l22 -19 -132 -133 c-84 -84 -133 -140 -133 -153 0 -12 -7 -21 -15 -21 -13
0 -15 -20 -15 -121 l0 -120 269 -270 270 -269 120 0 c101 0 121 2 121 15 0 8
9 15 21 15 13 0 69 49 153 133 l133 132 19 -22 c10 -13 29 -23 42 -23 12 0 22
-4 22 -9 0 -14 59 -41 90 -41 16 0 30 -7 34 -15 3 -8 15 -15 26 -15 11 0 20
-4 20 -10 0 -5 16 -10 35 -10 19 0 35 -4 35 -10 0 -5 18 -13 40 -16 22 -4 40
-10 40 -15 0 -5 16 -9 35 -9 l35 0 0 -220 c0 -140 4 -220 10 -220 6 0 10 -9
10 -20 0 -11 7 -23 15 -26 8 -4 15 -12 15 -20 0 -8 6 -14 13 -14 7 0 19 -9 27
-20 14 -19 26 -20 450 -20 424 0 436 1 450 20 8 11 20 20 27 20 7 0 13 6 13
14 0 8 7 16 15 20 8 3 15 15 15 26 0 11 5 20 10 20 6 0 10 80 10 220 l0 220
35 0 c19 0 35 4 35 9 0 5 18 11 40 15 22 3 40 11 40 16 0 6 16 10 35 10 19 0
35 5 35 10 0 6 9 10 20 10 11 0 23 7 26 15 4 8 18 15 34 15 31 0 90 27 90 41
0 5 10 9 23 9 12 0 31 10 41 23 l19 22 133 -132 c84 -84 140 -133 153 -133 12
0 21 -7 21 -15 0 -13 20 -15 121 -15 l120 0 270 269 269 270 0 120 c0 101 -2
121 -15 121 -8 0 -15 9 -15 21 0 13 -49 69 -133 153 l-132 133 22 19 c13 10
23 29 23 42 0 12 4 22 9 22 14 0 41 59 41 90 0 16 7 30 15 34 8 3 15 15 15 26
0 11 5 20 10 20 6 0 10 16 10 35 0 19 4 35 10 35 5 0 13 18 16 40 4 22 10 40
15 40 5 0 9 16 9 35 l0 35 220 0 c140 0 220 4 220 10 0 6 9 10 20 10 11 0 23
7 26 15 4 8 12 15 20 15 8 0 14 6 14 13 0 7 9 19 20 27 19 14 20 26 20 450 0
424 -1 436 -20 450 -11 8 -20 20 -20 27 0 7 -6 13 -14 13 -8 0 -16 7 -20 15
-3 8 -15 15 -26 15 -11 0 -20 5 -20 10 0 6 -80 10 -220 10 l-220 0 0 35 c0 19
-4 35 -9 35 -5 0 -11 18 -15 40 -3 22 -11 40 -16 40 -6 0 -10 16 -10 35 0 19
-4 35 -10 35 -5 0 -10 9 -10 20 0 11 -7 23 -15 26 -8 4 -15 18 -15 34 0 31
-27 90 -41 90 -5 0 -9 10 -9 23 0 12 -10 31 -23 41 l-22 19 132 133 c84 84
133 140 133 153 0 12 7 21 15 21 13 0 15 20 15 121 l0 120 -269 270 -270 269
-120 0 c-101 0 -121 -2 -121 -15 0 -8 -9 -15 -21 -15 -13 0 -69 -49 -153 -133
l-133 -132 -19 22 c-10 13 -29 23 -41 23 -13 0 -23 4 -23 9 0 14 -59 41 -90
41 -16 0 -30 7 -34 15 -3 8 -15 15 -26 15 -11 0 -20 5 -20 10 0 6 -16 10 -35
10 -19 0 -35 4 -35 10 0 5 -18 13 -40 16 -22 4 -40 10 -40 15 0 5 -16 9 -35 9
l-35 0 0 220 c0 140 -4 220 -10 220 -5 0 -10 9 -10 20 0 11 -7 23 -15 26 -8 4
-15 12 -15 20 0 8 -6 14 -13 14 -7 0 -19 9 -27 20 -14 19 -26 20 -450 20 -424
0 -436 -1 -450 -20z m530 -1560 c0 -6 26 -10 59 -10 43 0 60 -4 65 -15 4 -10
20 -15 51 -15 25 0 45 -4 45 -10 0 -5 11 -10 24 -10 13 0 26 -7 30 -15 3 -9
19 -15 41 -15 19 0 35 -4 35 -10 0 -5 9 -10 21 -10 22 0 49 -22 49 -39 0 -6 9
-11 21 -11 11 0 35 -16 53 -35 19 -19 43 -35 55 -35 11 0 21 -5 21 -11 0 -14
25 -39 39 -39 6 0 11 -5 11 -11 0 -14 25 -39 39 -39 6 0 11 -10 11 -21 0 -12
16 -36 35 -55 19 -18 35 -42 35 -53 0 -12 5 -21 11 -21 17 0 39 -27 39 -49 0
-12 5 -21 10 -21 6 0 10 -16 10 -35 0 -22 6 -38 15 -41 8 -4 15 -17 15 -30 0
-13 5 -24 10 -24 6 0 10 -20 10 -45 0 -31 5 -47 15 -51 11 -5 15 -22 15 -65 0
-33 4 -59 10 -59 6 0 10 -33 10 -80 0 -47 -4 -80 -10 -80 -6 0 -10 -26 -10
-59 0 -43 -4 -60 -15 -65 -10 -4 -15 -20 -15 -51 0 -25 -4 -45 -10 -45 -5 0
-10 -11 -10 -24 0 -13 -7 -26 -15 -30 -9 -3 -15 -19 -15 -41 0 -19 -4 -35 -10
-35 -5 0 -10 -9 -10 -21 0 -22 -22 -49 -39 -49 -6 0 -11 -9 -11 -21 0 -11 -16
-35 -35 -53 -19 -19 -35 -43 -35 -55 0 -11 -5 -21 -11 -21 -14 0 -39 -25 -39
-39 0 -6 -5 -11 -11 -11 -14 0 -39 -25 -39 -39 0 -6 -10 -11 -21 -11 -12 0
-36 -16 -55 -35 -18 -19 -42 -35 -53 -35 -12 0 -21 -5 -21 -11 0 -17 -27 -39
-49 -39 -12 0 -21 -4 -21 -10 0 -5 -16 -10 -35 -10 -22 0 -38 -6 -41 -15 -4
-8 -17 -15 -30 -15 -13 0 -24 -4 -24 -10 0 -5 -20 -10 -45 -10 -31 0 -47 -5
-51 -15 -5 -11 -22 -15 -65 -15 -33 0 -59 -4 -59 -10 0 -6 -33 -10 -80 -10
-47 0 -80 4 -80 10 0 6 -26 10 -59 10 -43 0 -60 4 -65 15 -4 10 -20 15 -51 15
-25 0 -45 5 -45 10 0 6 -11 10 -24 10 -13 0 -26 7 -30 15 -3 9 -19 15 -41 15
-19 0 -35 5 -35 10 0 6 -9 10 -21 10 -22 0 -49 22 -49 39 0 6 -9 11 -21 11
-11 0 -35 16 -53 35 -19 19 -43 35 -55 35 -11 0 -21 5 -21 11 0 14 -25 39 -39
39 -6 0 -11 5 -11 11 0 14 -25 39 -39 39 -6 0 -11 10 -11 21 0 12 -16 36 -35
55 -19 18 -35 42 -35 53 0 12 -5 21 -11 21 -17 0 -39 27 -39 49 0 12 -4 21
-10 21 -5 0 -10 16 -10 35 0 22 -6 38 -15 41 -8 4 -15 17 -15 30 0 13 -4 24
-10 24 -5 0 -10 20 -10 45 0 31 -5 47 -15 51 -11 5 -15 22 -15 65 0 33 -4 59
-10 59 -6 0 -10 33 -10 80 0 47 4 80 10 80 6 0 10 26 10 59 0 43 4 60 15 65
10 4 15 20 15 51 0 25 5 45 10 45 6 0 10 11 10 24 0 13 7 26 15 30 9 3 15 19
15 41 0 19 5 35 10 35 6 0 10 9 10 21 0 22 22 49 39 49 6 0 11 9 11 21 0 11
16 35 35 53 19 19 35 43 35 55 0 11 5 21 11 21 14 0 39 25 39 39 0 6 5 11 11
11 14 0 39 25 39 39 0 6 10 11 21 11 12 0 36 16 55 35 18 19 42 35 53 35 12 0
21 5 21 11 0 17 27 39 49 39 12 0 21 5 21 10 0 6 16 10 35 10 22 0 38 6 41 15
4 8 17 15 30 15 13 0 24 5 24 10 0 6 20 10 45 10 31 0 47 5 51 15 5 11 22 15
65 15 33 0 59 4 59 10 0 6 33 10 80 10 47 0 80 -4 80 -10z"/>
</g>
</svg>
